<svg xmlns="http://www.w3.org/2000/svg" width="1200" height="630" viewBox="0 0 1200 630">
  <title>AI Auth Kit credential ledger</title>
  <rect width="1200" height="630" fill="#f2eee4"/>
  <path d="M64 62h1072M64 568h1072" stroke="#c8bdab"/>
  <text x="64" y="104" fill="#68271d" font-family="monospace" font-size="16" letter-spacing="3">LIBRARY + CLI / TYPESCRIPT</text>
  <text x="64" y="260" fill="#23201b" font-family="Georgia,serif" font-size="102" font-weight="700" letter-spacing="-5">AI Auth Kit</text>
  <text x="70" y="326" fill="#625c51" font-family="Arial,sans-serif" font-size="28">Provider auth. Model selection. Private storage.</text>
  <path d="M69 390h470M69 438h354M69 486h416" stroke="#c8bdab"/>
  <rect x="811" y="92" width="292" height="414" fill="#e7e0d2" stroke="#c8bdab"/>
  <rect x="785" y="118" width="292" height="414" fill="#fbf8f0" stroke="#23201b"/>
  <path d="M837 156v334" stroke="#8d3829"/>
  <path d="M817 168v13m0 19v41m0 19v13m0 19v68m0 19v41m0 19v13" stroke="#8d3829" stroke-width="8"/>
  <text x="873" y="174" fill="#23201b" font-family="monospace" font-size="14" letter-spacing="2">AUTHORIZATION / 01</text>
  <text x="873" y="272" fill="#23201b" font-family="monospace" font-size="64">01</text>
  <text x="873" y="326" fill="#625c51" font-family="monospace" font-size="13" letter-spacing="2">PROVIDER</text>
  <path d="M873 344h154" stroke="#23201b"/>
  <text x="873" y="386" fill="#625c51" font-family="monospace" font-size="13" letter-spacing="2">METHOD</text>
  <path d="M873 404h118" stroke="#23201b"/>
  <text x="873" y="446" fill="#625c51" font-family="monospace" font-size="13" letter-spacing="2">STORAGE</text>
  <path d="M873 464h142" stroke="#23201b"/>
  <text x="64" y="600" fill="#625c51" font-family="monospace" font-size="13" letter-spacing="2">ABRAN LABS / OPEN SOURCE</text>
</svg>
